<svg xmlns="http://www.w3.org/2000/svg" xmlns:xlink="http://www.w3.org/1999/xlink" width="500" zoomAndPan="magnify" viewBox="0 0 375 374.999991" height="500" preserveAspectRatio="xMidYMid meet" version="1.0"><defs><g/><clipPath id="da53791ec0"><path d="M 45 77 L 329.933594 77 L 329.933594 226.148438 L 45 226.148438 Z M 45 77 " clip-rule="nonzero"/></clipPath></defs><g clip-path="url(#da53791ec0)"><path fill="#8c7158" d="M 326.167969 220.375 L 319.011719 220.375 C 204.828125 64.261719 216.300781 79.679688 215.15625 78.378906 C 214.925781 78.109375 214.351562 77.691406 214.160156 77.613281 C 213.777344 77.5 213.699219 77.382812 213.011719 77.382812 C 212.972656 77.382812 212.972656 77.382812 212.9375 77.382812 C 212.859375 77.382812 212.820312 77.421875 212.746094 77.421875 C 212.285156 77.5 211.828125 77.652344 211.519531 77.84375 C 211.136719 78.070312 210.832031 78.339844 210.5625 78.761719 L 170.820312 143.410156 C 140.714844 101.597656 143.238281 104.773438 142.320312 104.351562 C 141.9375 104.160156 141.515625 104.085938 141.097656 104.085938 C 141.058594 104.085938 141.058594 104.085938 141.058594 104.085938 C 140.101562 104.238281 139.488281 104.390625 138.878906 105.117188 C 138.839844 105.195312 138.761719 105.230469 138.722656 105.269531 L 55.980469 220.375 L 48.828125 220.375 C 47.261719 220.375 45.960938 221.675781 45.960938 223.246094 C 45.960938 224.851562 47.261719 226.113281 48.828125 226.113281 L 326.167969 226.113281 C 327.734375 226.113281 329.035156 224.851562 329.035156 223.246094 C 329.035156 221.675781 327.734375 220.375 326.167969 220.375 Z M 303.023438 208.25 L 250.042969 208.25 C 248.472656 208.25 247.171875 206.949219 247.171875 205.378906 C 247.171875 203.773438 248.472656 202.511719 250.042969 202.511719 L 298.851562 202.511719 Z M 160.683594 172.480469 C 159.113281 172.480469 157.8125 171.21875 157.8125 169.613281 C 157.8125 168.042969 159.113281 166.742188 160.683594 166.742188 L 180.496094 166.742188 L 184.628906 172.480469 Z M 172.503906 205.378906 C 172.503906 206.949219 171.203125 208.25 169.632812 208.25 L 142.816406 208.25 C 141.210938 208.25 139.949219 206.949219 139.949219 205.378906 C 139.949219 203.773438 141.210938 202.511719 142.816406 202.511719 L 169.632812 202.511719 C 171.203125 202.511719 172.503906 203.773438 172.503906 205.378906 Z M 145.6875 151.75 C 145.6875 153.316406 144.386719 154.617188 142.816406 154.617188 L 130.730469 154.617188 L 132.335938 148.878906 L 142.816406 148.878906 C 144.386719 148.878906 145.6875 150.179688 145.6875 151.75 Z M 138.339844 184.648438 C 139.910156 184.648438 141.210938 185.910156 141.210938 187.515625 C 141.210938 189.082031 139.910156 190.382812 138.339844 190.382812 L 120.746094 190.382812 L 122.351562 184.648438 Z M 191.972656 208.25 C 190.367188 208.25 189.105469 206.949219 189.105469 205.378906 C 189.105469 203.773438 190.367188 202.511719 191.972656 202.511719 L 206.203125 202.511719 L 210.335938 208.25 Z M 200.425781 184.648438 L 227.703125 184.648438 C 229.308594 184.648438 230.570312 185.910156 230.570312 187.515625 C 230.570312 189.082031 229.308594 190.382812 227.703125 190.382812 L 204.558594 190.382812 Z M 196.488281 154.617188 L 198.015625 148.878906 L 227.703125 148.878906 C 229.308594 148.878906 230.570312 150.179688 230.570312 151.75 C 230.570312 153.316406 229.308594 154.617188 227.703125 154.617188 Z M 276.894531 172.480469 L 258.992188 172.480469 C 257.425781 172.480469 256.125 171.21875 256.125 169.613281 C 256.125 168.042969 257.425781 166.742188 258.992188 166.742188 L 272.726562 166.742188 Z M 250.769531 136.753906 L 232.175781 136.753906 C 230.609375 136.753906 229.308594 135.453125 229.308594 133.882812 C 229.308594 132.277344 230.609375 131.015625 232.175781 131.015625 L 246.597656 131.015625 Z M 207.390625 113.113281 L 214.3125 113.113281 C 215.882812 113.113281 217.183594 114.414062 217.183594 115.980469 C 217.183594 117.589844 215.882812 118.851562 214.3125 118.851562 L 205.859375 118.851562 Z M 205.324219 98.269531 L 187.460938 166.515625 L 174.453125 148.457031 Z M 63.136719 220.261719 L 133.980469 121.757812 L 106.4375 220.261719 Z M 63.136719 220.261719 " fill-opacity="1" fill-rule="nonzero"/></g><g fill="#e8e8e8" fill-opacity="1"><g transform="translate(40.273127, 295.909285)"><g><path d="M 12.269531 -18.210938 L 7.269531 -18.210938 L 7.269531 -30.640625 C 7.269531 -31.03125 7.035156 -31.265625 6.644531 -31.265625 L 2.617188 -31.265625 C 2.148438 -31.265625 1.953125 -31.03125 1.953125 -30.640625 L 1.953125 -0.625 C 1.953125 -0.234375 2.148438 0 2.617188 0 L 6.644531 0 C 7.035156 0 7.269531 -0.234375 7.269531 -0.625 L 7.269531 -13.054688 L 12.269531 -13.054688 L 12.269531 -0.625 C 12.269531 -0.234375 12.503906 0 12.898438 0 L 16.921875 0 C 17.390625 0 17.585938 -0.234375 17.585938 -0.625 L 17.585938 -30.640625 C 17.585938 -31.03125 17.390625 -31.265625 16.921875 -31.265625 L 12.898438 -31.265625 C 12.503906 -31.265625 12.269531 -31.03125 12.269531 -30.640625 Z M 12.269531 -18.210938 "/></g></g></g><g fill="#e8e8e8" fill-opacity="1"><g transform="translate(72.903717, 295.909285)"><g><path d="M 2.578125 -31.265625 C 2.148438 -31.265625 1.953125 -31.03125 1.953125 -30.640625 L 1.953125 -0.625 C 1.953125 -0.234375 2.148438 0 2.578125 0 L 6.644531 0 C 7.035156 0 7.269531 -0.234375 7.269531 -0.625 L 7.269531 -30.640625 C 7.269531 -31.03125 7.035156 -31.265625 6.644531 -31.265625 Z M 2.578125 -31.265625 "/></g></g></g><g fill="#e8e8e8" fill-opacity="1"><g transform="translate(95.218434, 295.909285)"><g><path d="M 17.546875 -30.640625 C 17.546875 -31.03125 17.390625 -31.265625 16.921875 -31.265625 L 2.539062 -31.265625 C 2.1875 -31.265625 1.953125 -31.03125 1.953125 -30.640625 L 1.953125 -0.625 C 1.953125 -0.234375 2.1875 0 2.539062 0 L 16.921875 0 C 17.390625 0 17.546875 -0.234375 17.546875 -0.625 L 17.546875 -4.535156 C 17.546875 -4.964844 17.390625 -5.160156 16.921875 -5.160156 L 7.152344 -5.160156 L 7.152344 -13.054688 L 14.617188 -13.054688 C 15.007812 -13.054688 15.242188 -13.289062 15.242188 -13.71875 L 15.242188 -17.585938 C 15.242188 -18.015625 15.007812 -18.25 14.617188 -18.25 L 7.152344 -18.25 L 7.152344 -26.066406 L 16.921875 -26.066406 C 17.390625 -26.066406 17.546875 -26.339844 17.546875 -26.730469 Z M 17.546875 -30.640625 "/></g></g></g><g fill="#e8e8e8" fill-opacity="1"><g transform="translate(127.809946, 295.909285)"><g><path d="M 18.015625 -25.636719 C 18.015625 -29.308594 16.0625 -31.265625 12.386719 -31.265625 L 2.578125 -31.265625 C 2.1875 -31.265625 1.953125 -31.03125 1.953125 -30.640625 L 1.953125 -0.625 C 1.953125 -0.234375 2.1875 0 2.578125 0 L 6.644531 0 C 7.035156 0 7.269531 -0.234375 7.269531 -0.625 L 7.269531 -10.472656 L 9.964844 -10.472656 L 12.582031 -0.546875 C 12.660156 -0.195312 12.859375 0 13.25 0 L 17.3125 0 C 17.742188 0 17.976562 -0.234375 17.859375 -0.703125 L 15.164062 -10.941406 C 17.039062 -11.761719 18.015625 -13.484375 18.015625 -16.101562 Z M 7.269531 -15.632812 L 7.269531 -26.105469 L 11.136719 -26.105469 C 12.152344 -26.105469 12.699219 -25.558594 12.699219 -24.542969 L 12.699219 -17.195312 C 12.699219 -16.179688 12.152344 -15.632812 11.136719 -15.632812 Z M 7.269531 -15.632812 "/></g></g></g><g fill="#e8e8e8" fill-opacity="1"><g transform="translate(160.870357, 295.909285)"><g><path d="M 1.953125 -5.628906 C 1.953125 -1.953125 3.90625 0 7.582031 0 L 11.957031 0 C 15.632812 0 17.585938 -1.953125 17.585938 -5.628906 L 17.585938 -25.636719 C 17.585938 -29.308594 15.632812 -31.265625 11.957031 -31.265625 L 7.582031 -31.265625 C 3.90625 -31.265625 1.953125 -29.308594 1.953125 -25.636719 Z M 8.714844 -5.042969 C 7.699219 -5.042969 7.152344 -5.550781 7.152344 -6.605469 L 7.152344 -24.660156 C 7.152344 -25.675781 7.699219 -26.222656 8.714844 -26.222656 L 10.980469 -26.222656 C 11.996094 -26.222656 12.542969 -25.675781 12.542969 -24.660156 L 12.542969 -6.605469 C 12.542969 -5.550781 11.996094 -5.042969 10.980469 -5.042969 Z M 8.714844 -5.042969 "/></g></g></g><g fill="#e8e8e8" fill-opacity="1"><g transform="translate(193.500955, 295.909285)"><g><path d="M 7.269531 -5.160156 L 16.570312 -5.160156 C 17 -5.160156 17.195312 -4.925781 17.195312 -4.535156 L 17.195312 -0.625 C 17.195312 -0.195312 17 0 16.570312 0 L 2.578125 0 C 2.1875 0 1.953125 -0.195312 1.953125 -0.625 L 1.953125 -30.640625 C 1.953125 -31.03125 2.1875 -31.265625 2.578125 -31.265625 L 6.644531 -31.265625 C 7.074219 -31.265625 7.269531 -31.03125 7.269531 -30.640625 Z M 7.269531 -5.160156 "/></g></g></g><g fill="#e8e8e8" fill-opacity="1"><g transform="translate(225.740795, 295.909285)"><g><path d="M 2.578125 -31.265625 C 2.148438 -31.265625 1.953125 -31.03125 1.953125 -30.640625 L 1.953125 -0.625 C 1.953125 -0.234375 2.148438 0 2.578125 0 L 6.644531 0 C 7.035156 0 7.269531 -0.234375 7.269531 -0.625 L 7.269531 -30.640625 C 7.269531 -31.03125 7.035156 -31.265625 6.644531 -31.265625 Z M 2.578125 -31.265625 "/></g></g></g><g fill="#e8e8e8" fill-opacity="1"><g transform="translate(248.055519, 295.909285)"><g><path d="M 13.953125 -31.265625 C 13.523438 -31.265625 13.328125 -31.03125 13.328125 -30.640625 L 13.328125 -14.148438 L 13.09375 -14.148438 L 7.152344 -30.757812 C 7.035156 -31.109375 6.800781 -31.265625 6.449219 -31.265625 L 2.578125 -31.265625 C 2.1875 -31.265625 1.953125 -31.03125 1.953125 -30.640625 L 1.953125 -0.625 C 1.953125 -0.234375 2.1875 0 2.578125 0 L 6.644531 0 C 7.074219 0 7.269531 -0.234375 7.269531 -0.625 L 7.269531 -17.195312 L 7.464844 -17.195312 L 13.445312 -0.507812 C 13.5625 -0.15625 13.796875 0 14.148438 0 L 18.015625 0 C 18.40625 0 18.640625 -0.234375 18.640625 -0.625 L 18.640625 -30.640625 C 18.640625 -31.03125 18.40625 -31.265625 18.015625 -31.265625 Z M 13.953125 -31.265625 "/></g></g></g><g fill="#e8e8e8" fill-opacity="1"><g transform="translate(281.741147, 295.909285)"><g><path d="M 1.953125 -5.628906 C 1.953125 -1.953125 3.90625 0 7.582031 0 L 12.738281 0 C 16.375 0 18.367188 -1.953125 18.367188 -5.628906 L 18.367188 -16.492188 C 18.367188 -16.921875 18.132812 -17.117188 17.742188 -17.117188 L 11.175781 -17.117188 C 10.746094 -17.117188 10.550781 -16.921875 10.550781 -16.492188 L 10.550781 -12.582031 C 10.550781 -12.191406 10.746094 -11.957031 11.175781 -11.957031 L 13.210938 -11.957031 L 13.210938 -6.722656 C 13.210938 -5.667969 12.660156 -5.160156 11.644531 -5.160156 L 8.832031 -5.160156 C 7.816406 -5.160156 7.269531 -5.667969 7.269531 -6.722656 L 7.269531 -24.542969 C 7.269531 -25.558594 7.777344 -26.105469 8.832031 -26.105469 L 11.644531 -26.105469 C 12.660156 -26.105469 13.210938 -25.558594 13.210938 -24.542969 L 13.210938 -21.574219 C 13.210938 -21.179688 13.40625 -20.945312 13.835938 -20.945312 L 17.742188 -20.945312 C 18.132812 -20.945312 18.367188 -21.179688 18.367188 -21.574219 L 18.367188 -25.636719 C 18.367188 -29.308594 16.375 -31.265625 12.738281 -31.265625 L 7.582031 -31.265625 C 3.90625 -31.265625 1.953125 -29.308594 1.953125 -25.636719 Z M 1.953125 -5.628906 "/></g></g></g><g fill="#e8e8e8" fill-opacity="1"><g transform="translate(315.153249, 295.909285)"><g><path d="M 1.953125 -5.628906 C 1.953125 -1.953125 3.90625 0 7.582031 0 L 11.957031 0 C 15.632812 0 17.585938 -1.953125 17.585938 -5.628906 L 17.585938 -25.636719 C 17.585938 -29.308594 15.632812 -31.265625 11.957031 -31.265625 L 7.582031 -31.265625 C 3.90625 -31.265625 1.953125 -29.308594 1.953125 -25.636719 Z M 8.714844 -5.042969 C 7.699219 -5.042969 7.152344 -5.550781 7.152344 -6.605469 L 7.152344 -24.660156 C 7.152344 -25.675781 7.699219 -26.222656 8.714844 -26.222656 L 10.980469 -26.222656 C 11.996094 -26.222656 12.542969 -25.675781 12.542969 -24.660156 L 12.542969 -6.605469 C 12.542969 -5.550781 11.996094 -5.042969 10.980469 -5.042969 Z M 8.714844 -5.042969 "/></g></g></g></svg>